<svg xmlns="http://www.w3.org/2000/svg" width="48" height="48" viewBox="0 0 48 48">
  <g id="Icon_Channel_Email_48px" data-name="Icon/Channel/Email/48px" transform="translate(-489 -514)">
    <rect id="Bound" width="48" height="48" transform="translate(489 514)" fill="none"/>
    <g id="Ellipse" transform="translate(493 518)" fill="#fff" stroke="#ccc" stroke-width="1">
      <circle cx="20" cy="20" r="20" stroke="none"/>
      <circle cx="20" cy="20" r="19.5" fill="none"/>
    </g>
    <g id="Icon_Email" data-name="Icon/Email" transform="translate(501.334 526)">
      <rect id="Bound-2" data-name="Bound" width="24" height="24" transform="translate(-0.334)" fill="none"/>
      <path id="Email" d="M18.125,64H1.875A1.875,1.875,0,0,0,0,65.875v11.25A1.875,1.875,0,0,0,1.875,79h16.25A1.875,1.875,0,0,0,20,77.125V65.875A1.875,1.875,0,0,0,18.125,64Zm0,1.875v1.594c-.876.713-2.272,1.822-5.257,4.16-.658.517-1.961,1.761-2.868,1.746-.907.015-2.21-1.229-2.868-1.746-2.985-2.337-4.381-3.446-5.257-4.16V65.875ZM1.875,77.125v-7.25c.9.713,2.164,1.713,4.1,3.228.854.672,2.349,2.156,4.026,2.147,1.669.009,3.145-1.453,4.026-2.146,1.935-1.515,3.2-2.516,4.1-3.229v7.25Z" transform="translate(2 -59)" fill="#ccc"/>
    </g>
  </g>
</svg>
