<svg xmlns="http://www.w3.org/2000/svg" width="48" height="48" viewBox="0 0 48 48">
  <g id="Icon_Channel_SMS_48px" data-name="Icon/Channel/SMS/48px" transform="translate(-489 -514)">
    <rect id="Bound" width="48" height="48" transform="translate(489 514)" fill="none"/>
    <g id="Ellipse" transform="translate(493 518)" fill="#fff" stroke="#ccc" stroke-width="1">
      <circle cx="20" cy="20" r="20" stroke="none"/>
      <circle cx="20" cy="20" r="19.5" fill="none"/>
    </g>
    <g id="Icon_SMS" data-name="Icon/SMS" transform="translate(501.08 526)" style="isolation: isolate">
      <rect id="Bound-2" data-name="Bound" width="24" height="24" transform="translate(-0.08)" fill="none"/>
      <path id="SMS" d="M10.625,0H1.875A1.875,1.875,0,0,0,0,1.875v16.25A1.875,1.875,0,0,0,1.875,20h8.75A1.875,1.875,0,0,0,12.5,18.125V1.875A1.875,1.875,0,0,0,10.625,0ZM6.25,18.75A1.25,1.25,0,1,1,7.5,17.5,1.249,1.249,0,0,1,6.25,18.75Zm4.375-4.219a.47.47,0,0,1-.469.469H2.344a.47.47,0,0,1-.469-.469V2.344a.47.47,0,0,1,.469-.469h7.812a.47.47,0,0,1,.469.469Z" transform="translate(6 2)" fill="#ccc"/>
    </g>
  </g>
</svg>
