<svg id="Icon_PatientChart_24px" data-name="Icon/PatientChart/24px" xmlns="http://www.w3.org/2000/svg" width="24" height="24" viewBox="0 0 24 24">
  <rect id="Rectangle_711" data-name="Rectangle 711" width="24" height="24" fill="none"/>
  <path id="Path_2039" data-name="Path 2039" d="M13.17,4,18,8.83V20H6V4h7.17M14,2H6A2.006,2.006,0,0,0,4,4V20a2.006,2.006,0,0,0,2,2H18a2.006,2.006,0,0,0,2-2V8L14,2ZM12,14a2,2,0,1,0-2-2A2.006,2.006,0,0,0,12,14Zm4,3.43a2.011,2.011,0,0,0-1.22-1.85,6.952,6.952,0,0,0-5.56,0A2.011,2.011,0,0,0,8,17.43V18h8Z" fill="rgba(0,0,0,0.5)"/>
</svg>
