<svg xmlns="http://www.w3.org/2000/svg" width="24" height="24" viewBox="0 0 24 24">
  <g id="Icon_Calendar_24px" data-name="Icon/Calendar/24px" transform="translate(-912 -920)">
    <rect id="Icon" width="24" height="24" transform="translate(912 920)" fill="none"/>
    <path id="calendar" d="M15.625,2.5H13.75V.469A.47.47,0,0,0,13.281,0H11.719a.47.47,0,0,0-.469.469V2.5h-5V.469A.47.47,0,0,0,5.781,0H4.219A.47.47,0,0,0,3.75.469V2.5H1.875A1.875,1.875,0,0,0,0,4.375v13.75A1.875,1.875,0,0,0,1.875,20h13.75A1.875,1.875,0,0,0,17.5,18.125V4.375A1.875,1.875,0,0,0,15.625,2.5Zm-.234,15.625H2.109a.235.235,0,0,1-.234-.234V6.25h13.75V17.891A.235.235,0,0,1,15.391,18.125Z" transform="translate(915 922)" fill="rgba(0,0,0,0.5)"/>
  </g>
</svg>
