<svg xmlns="http://www.w3.org/2000/svg" width="24" height="24" viewBox="0 0 24 24">
  <g id="Icon_Dashboard" data-name="Icon/Dashboard" transform="translate(-28 -16)">
    <rect id="Bound" width="24" height="24" transform="translate(28 16)" fill="none" opacity="0.7"/>
    <g id="Dashboard" transform="translate(32 20)">
      <path id="Union_8" data-name="Union 8" d="M13,16a.945.945,0,0,1-1-1V6a.945.945,0,0,1,1-1h2a.945.945,0,0,1,1,1v9a.945.945,0,0,1-1,1ZM7,16a.944.944,0,0,1-1-1V1A.945.945,0,0,1,7,0H9a.945.945,0,0,1,1,1V15a.944.944,0,0,1-1,1ZM1,16a.945.945,0,0,1-1-1V11a.945.945,0,0,1,1-1H3a.946.946,0,0,1,1,1v4a.945.945,0,0,1-1,1Z" transform="translate(0 0)" fill="rgba(0,0,0,0.5)"/>
    </g>
  </g>
</svg>
