<svg id="Icon_Add_Black_24px" data-name="Icon/Add/Black/24px" xmlns="http://www.w3.org/2000/svg" width="24" height="24" viewBox="0 0 24 24">
  <rect id="Bound" width="24" height="24" fill="none"/>
  <path id="Icon_Color" data-name="Icon Color" d="M12,24A12,12,0,0,1,3.514,3.515,12,12,0,0,1,20.486,20.485,11.922,11.922,0,0,1,12,24ZM5.336,10.667a1.333,1.333,0,1,0,0,2.667h5.33V19a1.333,1.333,0,1,0,2.667,0V13.334h5.331a1.333,1.333,0,1,0,0-2.667H13.333v-5a1.333,1.333,0,1,0-2.667,0v5Z" fill="rgba(0,0,0,0.45)"/>
</svg>
