<svg xmlns="http://www.w3.org/2000/svg" width="24" height="24" viewBox="0 0 24 24">
  <g id="Icon_Scripts_24px" data-name="Icon/Scripts/24px" transform="translate(-218 -316.76)">
    <path id="Bound" d="M0,0H24V24H0Z" transform="translate(218 316.76)" fill="none"/>
    <path id="Scripts" d="M14.446,3.727,11.17.451A1.875,1.875,0,0,0,9.846-.1H1.875A1.881,1.881,0,0,0,0,1.779V18.025A1.875,1.875,0,0,0,1.875,19.9H13.122A1.875,1.875,0,0,0,15,18.025V5.055a1.884,1.884,0,0,0-.551-1.328ZM12.97,4.9H10V1.931ZM1.875,18.025V1.779H8.123V5.84a.935.935,0,0,0,.937.937h4.062V18.025Z" transform="translate(223 318.86)" fill="rgba(0,0,0,0.5)"/>
  </g>
</svg>
