<svg xmlns="http://www.w3.org/2000/svg" width="24" height="24" viewBox="0 0 24 24">
  <g id="Icon_Ticket" data-name="Icon/Ticket" transform="translate(6 1)">
    <rect id="Bound" width="24" height="24" transform="translate(-6 -1)" fill="none" opacity="0.7"/>
    <path id="Tag" d="M0,9.848V1.875A1.875,1.875,0,0,1,1.875,0H9.848a1.875,1.875,0,0,1,1.326.549l8.277,8.277a1.875,1.875,0,0,1,0,2.652l-7.973,7.973a1.875,1.875,0,0,1-2.652,0L.549,11.174A1.875,1.875,0,0,1,0,9.848ZM4.375,2.5A1.875,1.875,0,1,0,6.25,4.375,1.875,1.875,0,0,0,4.375,2.5Z" transform="translate(-4 1)" fill="rgba(0,0,0,0.5)"/>
  </g>
</svg>
