<svg xmlns="http://www.w3.org/2000/svg" width="24" height="24" viewBox="0 0 24 24">
  <g id="Icon_Web_24px" data-name="Icon/Web/24px" transform="translate(0.334)">
    <rect id="Bound" width="24" height="24" transform="translate(-0.334)" fill="none"/>
    <path id="globe" d="M10,12.516C9.567,9.863,8.551,8,7.369,8s-2.2,1.863-2.63,4.516ZM4.516,15.369a18.623,18.623,0,0,0,.1,1.9H10.12a18.623,18.623,0,0,0,.1-1.9,18.623,18.623,0,0,0-.1-1.9H4.614A18.623,18.623,0,0,0,4.516,15.369Zm9.648-2.852A7.384,7.384,0,0,0,9.469,8.309a10.028,10.028,0,0,1,1.486,4.207Zm-8.9-4.207A7.379,7.379,0,0,0,.573,12.516H3.782A9.987,9.987,0,0,1,5.265,8.309Zm9.217,5.158H11.074c.062.624.1,1.263.1,1.9s-.036,1.278-.1,1.9h3.405a7.305,7.305,0,0,0,.256-1.9,7.433,7.433,0,0,0-.253-1.9Zm-10.916,1.9c0-.639.036-1.278.1-1.9H.256a7.2,7.2,0,0,0,0,3.8H3.661C3.6,16.646,3.565,16.007,3.565,15.369Zm1.174,2.852c.431,2.653,1.447,4.516,2.63,4.516s2.2-1.863,2.63-4.516Zm4.733,4.207a7.391,7.391,0,0,0,4.695-4.207H10.958A10.028,10.028,0,0,1,9.472,22.428Zm-8.9-4.207a7.384,7.384,0,0,0,4.695,4.207,10.028,10.028,0,0,1-1.486-4.207H.573Z" transform="translate(4.666 -3)" fill="rgba(0,0,0,0.87)"/>
  </g>
</svg>
